<svg width="50" height="150" viewBox="0 0 50 150" fill="none" xmlns="http://www.w3.org/2000/svg">
<g clip-path="url(#clip0_2_9)">
<rect width="50" height="150" fill="white"/>
<rect width="10" height="10" fill="black"/>
<rect y="40" width="10" height="10" fill="black"/>
<rect y="80" width="10" height="10" fill="black"/>
<rect y="20" width="10" height="10" fill="black"/>
<rect y="60" width="10" height="10" fill="black"/>
<rect y="100" width="10" height="10" fill="black"/>
<rect y="120" width="10" height="10" fill="black"/>
<rect y="140" width="10" height="10" fill="black"/>
<rect x="10" y="10" width="10" height="10" fill="black"/>
<rect x="10" y="50" width="10" height="10" fill="black"/>
<rect x="10" y="90" width="10" height="10" fill="black"/>
<rect x="10" y="30" width="10" height="10" fill="black"/>
<rect x="10" y="70" width="10" height="10" fill="black"/>
<rect x="10" y="110" width="10" height="10" fill="black"/>
<rect x="10" y="130" width="10" height="10" fill="black"/>
<rect x="20" width="10" height="10" fill="black"/>
<rect x="20" y="40" width="10" height="10" fill="black"/>
<rect x="20" y="80" width="10" height="10" fill="black"/>
<rect x="20" y="20" width="10" height="10" fill="black"/>
<rect x="20" y="60" width="10" height="10" fill="black"/>
<rect x="20" y="100" width="10" height="10" fill="black"/>
<rect x="20" y="120" width="10" height="10" fill="black"/>
<rect x="20" y="140" width="10" height="10" fill="black"/>
<rect x="30" y="10" width="10" height="10" fill="black"/>
<rect x="30" y="50" width="10" height="10" fill="black"/>
<rect x="30" y="90" width="10" height="10" fill="black"/>
<rect x="30" y="30" width="10" height="10" fill="black"/>
<rect x="30" y="70" width="10" height="10" fill="black"/>
<rect x="30" y="110" width="10" height="10" fill="black"/>
<rect x="30" y="130" width="10" height="10" fill="black"/>
<rect x="40" width="10" height="10" fill="black"/>
<rect x="40" y="40" width="10" height="10" fill="black"/>
<rect x="40" y="80" width="10" height="10" fill="black"/>
<rect x="40" y="20" width="10" height="10" fill="black"/>
<rect x="40" y="60" width="10" height="10" fill="black"/>
<rect x="40" y="100" width="10" height="10" fill="black"/>
<rect x="40" y="120" width="10" height="10" fill="black"/>
<rect x="40" y="140" width="10" height="10" fill="black"/>
</g>
<defs>
<clipPath id="clip0_2_9">
<rect width="50" height="150" fill="white"/>
</clipPath>
</defs>
</svg>
